<?xml version="1.0" encoding="utf-8"?>
<!-- Generator: Adobe Illustrator 23.0.3, SVG Export Plug-In . SVG Version: 6.00 Build 0)  -->
<svg version="1.1" xmlns="http://www.w3.org/2000/svg" xmlns:xlink="http://www.w3.org/1999/xlink" x="0px" y="0px"
	 viewBox="0 0 286.7 102.3" style="enable-background:new 0 0 286.7 102.3;" xml:space="preserve">
<style type="text/css">
	.st0{fill:#E40046;}
</style>
<g id="Laag_1">
	<g>
		<g>
			<path d="M12.9,46.7h20.1v9.6H12.9v7.9h23V74H1.6V28.6h34.3v9.8h-23V46.7z"/>
			<path class="st0" d="M42.7,46.6c0-3.3,2.7-5.7,6-5.7c3.3,0,6.1,2.5,6.1,5.7c0,3.4-2.8,5.9-6.1,5.9C45.4,52.5,42.7,50,42.7,46.6z
				 M42.7,69.3c0-3.3,2.7-5.8,6-5.8c3.3,0,6.1,2.5,6.1,5.8c0,3.3-2.8,5.9-6.1,5.9C45.4,75.2,42.7,72.6,42.7,69.3z"/>
			<path d="M112.1,74h-11.3V51.2L90.8,66.8v0.1h-6.3v-0.1L74.3,51.1L74.4,74H63.1V28.6h8.4l16.1,24.2l16.1-24.2h8.4V74z"/>
			<path class="st0" d="M142.9,67.3H134V56.4h-11.4v-8.5H134V36.9h8.9v10.9h11.5v8.5h-11.5V67.3z"/>
			<path d="M213.7,74h-11.3V51.2l-10.1,15.5v0.1h-6.3v-0.1l-10.1-15.7L176,74h-11.3V28.6h8.4l16.1,24.2l16.1-24.2h8.4V74z"/>
			<path d="M233.5,66.2l-3,7.8h-12l19.3-45.6h10.8L267.8,74h-12l-3.1-7.8H233.5z M243.1,41.5l-5.9,15.1H249L243.1,41.5z"/>
			<path class="st0" d="M273,69.3c0-3.3,2.7-5.8,6-5.8c3.3,0,6.1,2.5,6.1,5.8c0,3.3-2.8,5.9-6.1,5.9C275.7,75.2,273,72.6,273,69.3z"
				/>
		</g>
	</g>
</g>
<g id="Layer_1">
</g>
</svg>
